<svg xmlns="http://www.w3.org/2000/svg" width="556" height="184"><path fill="#ed2024" d="M518 162.9a18.66 18.66 0 100-.22z"/><path d="M31.57 0v32.1H0V0zM30 180.15H1.86V56.24H30zm163.46 0h-28.13v-11.41a46.12 46.12 0 01-16.85 10.88 60.52 60.52 0 01-22.15 4 63.79 63.79 0 01-26.93-5.44 58.8 58.8 0 01-19.77-14.48 63.77 63.77 0 01-12.21-20.83 72 72 0 01-4.24-24.54 73 73 0 014.24-24.67 63.56 63.56 0 0112.21-21A58.63 58.63 0 0199.4 58.24q11.8-5.44 26.93-5.44a60.73 60.73 0 0122.15 4 46.14 46.14 0 0116.85 10.89v-65h28.13zm-30.25-79.07a36.16 36.16 0 00-8.63-12.46 34.37 34.37 0 00-12.33-7.43 42.66 42.66 0 00-14.07-2.39 34.82 34.82 0 00-15 3.18 37.51 37.51 0 00-11.67 8.49A36.68 36.68 0 0094 103.08a44.3 44.3 0 00-2.65 15.25A43.08 43.08 0 0094 133.45a37 37 0 007.56 12.47 37.51 37.51 0 0011.67 8.49 34.65 34.65 0 0015 3.19 42.66 42.66 0 0014.07-2.39 35.59 35.59 0 0012.33-7.29 35 35 0 008.63-12.34 43.52 43.52 0 003.18-17.25 43.56 43.56 0 00-3.23-17.25zm146 53.2a27 27 0 0012.2-10.21h30.52A58.34 58.34 0 01328.85 173a65.35 65.35 0 01-36.62 10.61 69.3 69.3 0 01-26.39-4.91A62.41 62.41 0 01245 165a64.43 64.43 0 01-13.79-20.7 66.85 66.85 0 01-5.05-26.3A68.52 68.52 0 01231 92.33a61.75 61.75 0 0113.39-20.69 63.1 63.1 0 0120.43-13.8 65.82 65.82 0 0126.14-5 64.14 64.14 0 0125.33 4.9 59.38 59.38 0 0119.91 13.67 63.05 63.05 0 0113 20.43 67.48 67.48 0 014.65 25.2v5.58a31.55 31.55 0 01-.53 5.57h-98A34 34 0 00268 149.51q10.2 8.09 24.27 8.09a42.3 42.3 0 0016.94-3.32zm-41.65-68.72a29.93 29.93 0 00-11.68 20h68.19q-2.11-12.48-10.88-20T290.91 78q-13.53 0-23.35 7.56zM416.76 0v32.1h-31.57V0zm-1.59 180.15H387V56.24h28.13zm69 0h-28.11V2.66h28.11z"/></svg>